<?xml version="1.0" standalone="no"?>
<!DOCTYPE svg PUBLIC "-//W3C//DTD SVG 20010904//EN"
 "http://www.w3.org/TR/2001/REC-SVG-20010904/DTD/svg10.dtd">
<svg version="1.0" xmlns="http://www.w3.org/2000/svg"
 width="512.000000pt" height="512.000000pt" viewBox="0 0 512.000000 512.000000"
 preserveAspectRatio="xMidYMid meet">
<g transform="translate(0.000000,512.000000) scale(0.100000,-0.100000)"
fill="#000000" stroke="none">
<path d="M2560 4800 c0 0 -1280 -640 -1280 -640 c0 0 0 -1280 0 -1600 c0 -1280 1280 -1920 1280 -1920 c0 0 1280 640 1280 1920 c0 320 0 1600 0 1600 c0 0 -1280 640 -1280 640 z m853 -1728 c59 -59 108 -111 108 -115 0 -10 -854 -857 -863 -857 -4 0 -180 173 -391 384 l-383 384 106 106 c58 58 110 106 116 106 5 0 124 -113 265 -252 l256 -252 412 412 c226 226 412 411 412 411 0 0 108 -108 108 -106 z"/>
</g>
</svg>
